<?xml version="1.0" encoding="UTF-8"?>
<svg xmlns="http://www.w3.org/2000/svg" xmlns:xlink="http://www.w3.org/1999/xlink" width="48px" height="48px" viewBox="0 0 48 69" version="1.1">
<g id="surface1">
<path style=" stroke:none;fill-rule:nonzero;fill:rgb(5.098039%,4.705882%,13.333334%);fill-opacity:1;" d="M 42.957031 16.050781 L 42.910156 16.023438 L 42.796875 15.988281 C 42.84375 16.027344 42.898438 16.046875 42.957031 16.050781 Z M 43.652344 20.980469 L 43.597656 20.996094 Z M 42.976562 16.042969 C 42.96875 16.042969 42.964844 16.039062 42.957031 16.039062 C 42.957031 16.042969 42.957031 16.046875 42.957031 16.050781 C 42.964844 16.050781 42.972656 16.046875 42.976562 16.042969 Z M 42.976562 16.042969 "/>
<path style=" stroke:none;fill-rule:nonzero;fill:rgb(5.098039%,4.705882%,13.333334%);fill-opacity:1;" d="M 42.957031 16.050781 L 42.964844 16.050781 L 42.964844 16.046875 Z M 43.609375 20.972656 L 43.6875 20.925781 L 43.71875 20.910156 L 43.746094 20.878906 C 43.695312 20.902344 43.648438 20.933594 43.609375 20.972656 Z M 43.09375 16.160156 L 43.015625 16.085938 L 42.964844 16.054688 C 42.992188 16.105469 43.039062 16.140625 43.09375 16.160156 Z M 23.347656 63.992188 C 23.285156 64.019531 23.230469 64.0625 23.191406 64.113281 L 23.238281 64.082031 C 23.273438 64.054688 23.320312 64.015625 23.347656 63.992188 Z M 34.816406 61.75 C 34.816406 61.679688 34.78125 61.695312 34.789062 61.945312 C 34.789062 61.925781 34.796875 61.902344 34.800781 61.882812 C 34.804688 61.839844 34.808594 61.796875 34.816406 61.75 Z M 33.625 63.992188 C 33.5625 64.019531 33.507812 64.0625 33.464844 64.113281 L 33.515625 64.082031 C 33.550781 64.054688 33.597656 64.015625 33.625 63.992188 Z M 15.273438 64.527344 C 15.226562 64.484375 15.167969 64.457031 15.105469 64.449219 C 15.15625 64.472656 15.207031 64.496094 15.242188 64.515625 Z M 13.457031 62.796875 C 13.449219 62.722656 13.425781 62.652344 13.390625 62.589844 C 13.417969 62.65625 13.4375 62.722656 13.457031 62.792969 Z M 13.457031 62.796875 "/>
<path style=" stroke:none;fill-rule:nonzero;fill:rgb(100%,86.666667%,0%);fill-opacity:1;" d="M 25.664062 31.875 C 23.167969 32.9375 20.335938 34.136719 16.667969 34.136719 C 15.132812 34.136719 13.605469 33.925781 12.128906 33.515625 L 14.664062 59.402344 C 14.753906 60.484375 15.25 61.492188 16.054688 62.226562 C 16.859375 62.960938 17.910156 63.371094 19.003906 63.371094 C 19.003906 63.371094 22.601562 63.554688 23.800781 63.554688 C 25.09375 63.554688 28.96875 63.371094 28.96875 63.371094 C 30.0625 63.371094 31.113281 62.960938 31.917969 62.226562 C 32.722656 61.492188 33.21875 60.484375 33.308594 59.402344 L 36.023438 30.796875 C 34.808594 30.386719 33.585938 30.113281 32.203125 30.113281 C 29.8125 30.109375 27.886719 30.929688 25.664062 31.875 Z M 25.664062 31.875 "/>
<path style=" stroke:none;fill-rule:nonzero;fill:rgb(5.098039%,4.705882%,13.333334%);fill-opacity:1;" d="M 4.273438 20.832031 L 4.316406 20.871094 L 4.34375 20.886719 C 4.320312 20.867188 4.296875 20.847656 4.273438 20.832031 Z M 4.273438 20.832031 "/>
<path style=" stroke:none;fill-rule:nonzero;fill:rgb(5.098039%,4.705882%,13.333334%);fill-opacity:1;" d="M 47.757812 18.441406 L 47.378906 16.527344 C 47.035156 14.808594 46.257812 13.183594 44.480469 12.566406 C 43.910156 12.367188 43.265625 12.28125 42.828125 11.871094 C 42.394531 11.457031 42.265625 10.820312 42.164062 10.226562 C 41.976562 9.140625 41.800781 8.050781 41.609375 6.96875 C 41.445312 6.035156 41.3125 4.984375 40.882812 4.128906 C 40.324219 2.980469 39.160156 2.308594 38.003906 1.863281 C 37.410156 1.644531 36.804688 1.457031 36.191406 1.308594 C 33.300781 0.550781 30.261719 0.273438 27.289062 0.113281 C 23.722656 -0.0820312 20.144531 -0.0234375 16.585938 0.289062 C 13.933594 0.527344 11.144531 0.816406 8.625 1.730469 C 7.707031 2.0625 6.757812 2.460938 6.058594 3.167969 C 5.199219 4.035156 4.917969 5.378906 5.546875 6.460938 C 5.992188 7.230469 6.746094 7.773438 7.546875 8.132812 C 8.589844 8.59375 9.679688 8.945312 10.796875 9.183594 C 13.90625 9.867188 17.128906 10.132812 20.308594 10.25 C 23.832031 10.390625 27.359375 10.273438 30.867188 9.90625 C 31.734375 9.8125 32.597656 9.699219 33.460938 9.566406 C 34.480469 9.410156 35.132812 8.089844 34.832031 7.167969 C 34.472656 6.066406 33.507812 5.640625 32.417969 5.804688 C 32.257812 5.832031 32.097656 5.855469 31.9375 5.878906 L 31.820312 5.894531 C 31.453125 5.941406 31.082031 5.984375 30.714844 6.023438 C 29.949219 6.105469 29.1875 6.171875 28.417969 6.222656 C 26.703125 6.34375 24.980469 6.398438 23.257812 6.402344 C 21.570312 6.402344 19.875 6.351562 18.1875 6.242188 C 17.421875 6.191406 16.652344 6.128906 15.886719 6.050781 C 15.535156 6.015625 15.1875 5.976562 14.839844 5.933594 L 14.511719 5.894531 L 14.4375 5.882812 L 14.097656 5.832031 C 13.394531 5.730469 12.695312 5.609375 12 5.460938 C 11.855469 5.429688 11.753906 5.304688 11.753906 5.15625 C 11.753906 5.011719 11.855469 4.882812 12 4.851562 L 12.015625 4.851562 C 12.613281 4.722656 13.21875 4.617188 13.828125 4.519531 C 14.03125 4.488281 14.234375 4.457031 14.4375 4.429688 L 14.441406 4.429688 C 14.824219 4.402344 15.203125 4.335938 15.582031 4.289062 C 18.875 3.949219 22.1875 3.835938 25.496094 3.945312 C 27.101562 3.988281 28.707031 4.082031 30.304688 4.246094 C 30.648438 4.28125 30.992188 4.316406 31.332031 4.359375 C 31.464844 4.375 31.59375 4.394531 31.726562 4.410156 L 31.992188 4.449219 C 32.765625 4.5625 33.535156 4.703125 34.300781 4.863281 C 35.433594 5.109375 36.890625 5.1875 37.394531 6.425781 C 37.558594 6.816406 37.628906 7.25 37.71875 7.664062 L 37.832031 8.1875 C 37.835938 8.195312 37.835938 8.207031 37.839844 8.214844 C 38.105469 9.453125 38.371094 10.691406 38.640625 11.929688 C 38.679688 12.113281 38.640625 12.304688 38.53125 12.460938 C 38.421875 12.617188 38.253906 12.71875 38.066406 12.746094 L 38.058594 12.746094 L 37.894531 12.765625 L 37.734375 12.789062 C 37.21875 12.855469 36.707031 12.917969 36.195312 12.972656 C 35.183594 13.089844 34.171875 13.1875 33.15625 13.269531 C 31.140625 13.4375 29.121094 13.546875 27.101562 13.597656 C 26.070312 13.625 25.039062 13.636719 24.007812 13.636719 C 19.910156 13.632812 15.8125 13.398438 11.738281 12.925781 C 11.296875 12.875 10.855469 12.820312 10.414062 12.761719 C 10.757812 12.808594 10.167969 12.730469 10.046875 12.714844 C 9.765625 12.675781 9.484375 12.632812 9.207031 12.589844 C 8.265625 12.449219 7.328125 12.277344 6.390625 12.128906 C 5.253906 11.941406 4.171875 12.035156 3.144531 12.589844 C 2.300781 13.050781 1.617188 13.753906 1.1875 14.605469 C 0.746094 15.515625 0.613281 16.503906 0.414062 17.484375 C 0.21875 18.460938 -0.0898438 19.511719 0.0273438 20.515625 C 0.277344 22.679688 1.800781 24.441406 3.992188 24.835938 C 6.054688 25.207031 8.128906 25.507812 10.207031 25.761719 C 19.039062 26.839844 27.96875 26.890625 36.8125 25.914062 C 37.234375 25.871094 37.652344 26.015625 37.953125 26.3125 C 38.253906 26.609375 38.402344 27.023438 38.359375 27.441406 L 38.152344 29.445312 L 36.898438 41.585938 C 36.339844 47.035156 35.777344 52.480469 35.207031 57.925781 C 35.089844 59.105469 35.070312 60.320312 34.847656 61.484375 C 34.492188 63.3125 33.246094 64.4375 31.425781 64.851562 C 29.757812 65.226562 28.054688 65.425781 26.34375 65.441406 C 24.449219 65.449219 22.554688 65.367188 20.65625 65.375 C 18.632812 65.386719 16.15625 65.203125 14.59375 63.707031 C 13.21875 62.390625 13.03125 60.332031 12.84375 58.554688 C 12.59375 56.199219 12.347656 53.84375 12.101562 51.488281 L 10.730469 38.390625 L 9.839844 29.917969 C 9.828125 29.777344 9.8125 29.636719 9.796875 29.496094 C 9.691406 28.484375 8.96875 27.496094 7.835938 27.546875 C 6.863281 27.589844 5.757812 28.410156 5.875 29.496094 L 6.53125 35.78125 L 7.894531 48.773438 C 8.28125 52.46875 8.667969 56.160156 9.054688 59.851562 C 9.128906 60.558594 9.199219 61.265625 9.277344 61.976562 C 9.707031 65.839844 12.675781 67.921875 16.355469 68.507812 C 18.503906 68.851562 20.707031 68.925781 22.886719 68.960938 C 25.683594 69.003906 28.503906 69.109375 31.253906 68.605469 C 35.328125 67.863281 38.386719 65.160156 38.824219 60.96875 C 38.949219 59.757812 39.070312 58.546875 39.195312 57.335938 C 39.609375 53.332031 40.023438 49.324219 40.4375 45.320312 L 41.789062 32.230469 L 42.40625 26.234375 C 42.472656 25.621094 42.929688 25.125 43.535156 25.007812 C 44.703125 24.78125 45.816406 24.398438 46.644531 23.515625 C 47.964844 22.113281 48.226562 20.285156 47.757812 18.441406 Z M 3.933594 19.734375 C 3.949219 19.726562 3.917969 19.878906 3.902344 19.949219 C 3.902344 19.84375 3.90625 19.75 3.933594 19.734375 Z M 4.046875 20.605469 C 4.054688 20.597656 4.082031 20.636719 4.113281 20.679688 C 4.066406 20.640625 4.039062 20.609375 4.046875 20.605469 Z M 4.15625 20.75 C 4.199219 20.820312 4.21875 20.859375 4.15625 20.75 Z M 4.378906 20.929688 L 4.386719 20.929688 C 4.386719 20.9375 4.394531 20.945312 4.398438 20.949219 C 4.394531 20.941406 4.386719 20.9375 4.378906 20.929688 Z M 43.480469 20.660156 C 43.0625 21.058594 42.433594 21.242188 41.808594 21.332031 C 34.820312 22.363281 27.730469 22.886719 20.664062 22.65625 C 15.609375 22.484375 10.605469 21.925781 5.601562 21.222656 C 5.109375 21.152344 4.578125 21.066406 4.242188 20.707031 C 3.605469 20.027344 3.917969 18.664062 4.082031 17.84375 C 4.234375 17.09375 4.523438 16.09375 5.421875 15.988281 C 6.824219 15.824219 8.449219 16.410156 9.835938 16.621094 C 11.507812 16.875 13.183594 17.078125 14.863281 17.230469 C 22.042969 17.878906 29.339844 17.777344 36.484375 16.828125 C 37.785156 16.652344 39.085938 16.449219 40.378906 16.222656 C 41.53125 16.015625 42.808594 15.628906 43.503906 16.816406 C 43.980469 17.625 44.042969 18.703125 43.96875 19.617188 C 43.945312 20.015625 43.773438 20.386719 43.480469 20.660156 Z M 43.480469 20.660156 "/>
</g>
</svg>
