<svg xmlns="http://www.w3.org/2000/svg" width="48" height="48" baseProfile="basic"><path fill="#29b6f6" d="M24 44C12.972 44 4 35.028 4 24S12.972 4 24 4s20 8.972 20 20-8.972 20-20 20z"/><path fill="#fff" d="M32.227 15H13a2 2 0 0 0-2 2v13a3 3 0 0 0 3 3h14a3 3 0 0 0 3-3v-2h1.5a6.5 6.5 0 0 0 6.497-6.7c-.107-3.557-3.21-6.3-6.77-6.3zm.273 9.5H31v-6h1.5a3 3 0 1 1 0 6z"/><path fill="#ef5350" d="M23.538 19c-1.084 0-2.022.605-2.538 1.498-.516-.893-1.454-1.498-2.538-1.498-1.636 0-2.962 1.363-2.962 3.043C15.5 25.522 21 29 21 29s5.5-3.478 5.5-6.957c0-1.68-1.326-3.043-2.962-3.043z"/></svg>