<?xml version="1.0" encoding="UTF-8"?>
<svg xmlns="http://www.w3.org/2000/svg" xmlns:xlink="http://www.w3.org/1999/xlink" width="48px" height="48px" viewBox="0 0 48 48" version="1.1">
<g id="surface1">
<path style=" stroke:none;fill-rule:nonzero;fill:rgb(8.235294%,39.607844%,75.294119%);fill-opacity:1;" d="M 18.699219 13.765625 L 18.703125 13.769531 C 18.804688 13.320312 19.199219 13 19.660156 13 L 33.132812 13 C 33.148438 13 33.164062 12.992188 33.183594 12.992188 C 32.894531 8.214844 28.886719 6 25.351562 6 L 11.878906 6 C 11.417969 6.003906 11.019531 6.328125 10.921875 6.777344 L 10.917969 6.773438 L 5.027344 33.8125 L 5.042969 33.8125 C 5.027344 33.878906 5.003906 33.9375 5.003906 34.007812 C 5.003906 34.5625 5.449219 35 6.003906 35 L 14.074219 35 Z M 18.699219 13.765625 "/>
<path style=" stroke:none;fill-rule:nonzero;fill:rgb(1.176471%,60.784316%,89.803922%);fill-opacity:1;" d="M 33.183594 12.992188 C 33.238281 13.960938 33.160156 14.929688 32.953125 15.875 C 31.671875 21.871094 27.042969 24.992188 21.320312 24.992188 L 17.007812 24.992188 C 16.628906 24.972656 16.28125 25.1875 16.125 25.53125 L 14.386719 33.578125 L 14.082031 35.007812 L 14.074219 35.007812 L 12.8125 40.804688 L 12.824219 40.804688 C 12.8125 40.871094 12.785156 40.929688 12.785156 41 C 12.785156 41.550781 13.234375 42 13.785156 42 L 21.117188 42 L 21.132812 41.988281 C 21.59375 41.980469 21.984375 41.652344 22.078125 41.203125 L 22.09375 41.1875 L 23.90625 32.769531 C 23.90625 32.769531 24.03125 31.96875 24.878906 31.96875 L 29.054688 31.96875 C 34.777344 31.96875 39.457031 28.863281 40.738281 22.867188 C 42.179688 16.105469 37.359375 13.019531 33.183594 12.992188 Z M 33.183594 12.992188 "/>
<path style=" stroke:none;fill-rule:nonzero;fill:rgb(15.686275%,20.784314%,57.647061%);fill-opacity:1;" d="M 19.660156 13 C 19.199219 13 18.800781 13.320312 18.703125 13.769531 L 18.699219 13.765625 L 16.125 25.53125 C 16.28125 25.1875 16.628906 24.976562 17.003906 24.992188 L 21.238281 24.992188 C 26.964844 24.992188 31.671875 21.871094 32.953125 15.878906 C 33.160156 14.929688 33.238281 13.960938 33.183594 12.996094 C 33.164062 12.992188 33.148438 13 33.132812 13 Z M 19.660156 13 "/>
</g>
</svg>
