<?xml version="1.0" encoding="UTF-8"?>
<svg xmlns="http://www.w3.org/2000/svg" xmlns:xlink="http://www.w3.org/1999/xlink" width="48px" height="48px" viewBox="0 0 48 48" version="1.1">
<g id="surface1">
<path style=" stroke:none;fill-rule:nonzero;fill:rgb(100%,100%,100%);fill-opacity:1;" d="M 10.558594 3.839844 C 6.847656 3.839844 3.839844 6.847656 3.839844 10.558594 L 3.839844 37.441406 C 3.839844 41.152344 6.847656 44.160156 10.558594 44.160156 L 37.441406 44.160156 C 41.152344 44.160156 44.160156 41.152344 44.160156 37.441406 L 44.160156 10.558594 C 44.160156 6.847656 41.152344 3.839844 37.441406 3.839844 Z M 12.5625 12.480469 L 20.183594 12.480469 L 25.59375 20.167969 L 32.160156 12.480469 L 34.558594 12.480469 L 26.679688 21.707031 L 36.394531 35.519531 L 28.78125 35.519531 L 22.5 26.597656 L 14.878906 35.519531 L 12.480469 35.519531 L 21.417969 25.058594 Z M 16.238281 14.398438 L 29.78125 33.601562 L 32.722656 33.601562 L 19.179688 14.398438 Z M 16.238281 14.398438 "/>
</g>
</svg>
